# xmcd
#
# Track frame offsets:
#	150
#	13208
#	25408
#	37402
#	48918
#	61472
#	79592
#	92297
#	107021
#	121507
#	138455
#	152826
#	165338
#	175546
#	192249
#	204140
#	220356
#	231420
#	246141
#	261086
#
# Disc length: 3623 seconds
#
# Revision: 1
# Processed by: cddbd v1.4PL0 Copyright (c) Steve Scherf et al.
# Submitted via: audiograbber 1.82.02
#
DISCID=070e2514
DTITLE=Various Artist - CMT Classic Country Disc 1
DYEAR=1900
DGENRE=Country
TTITLE0=Johnny Cash - Man In Black
TTITLE1=Freddy Fender - Wasted Days And Wasted Nights
TTITLE2=Glen Campbell - Galveston
TTITLE3=Diana Trask - Oh Boy!
TTITLE4=Waylon Jennings - I'm A Rambling' Man
TTITLE5=James Blundell and James Reyne - Way Out West
TTITLE6=Mickey Gilley - Room Full Of Roses
TTITLE7=Bellamy Brothers - Let Your Love Flow
TTITLE8=Jeanne Pruett - Satin Sheets
TTITLE9=Ronnie Milsap - Smoky Mountain Rain
TTITLE10=Michael Nesmith - Joanne
TTITLE11=Lee Kernighan - Boys From The Bush
TTITLE12=Jerry Reed - When You're Hot You're Hot
TTITLE13=Dolly Parton - Save The Last Dance For Me
TTITLE14=Johnny Paycheck - Take This Job And Shove It
TTITLE15=Keith Whitely - I'm No Stranger To The Rain
TTITLE16=Willie Nelson - On The Road Again
TTITLE17=Olivia Newton-John - Banks Of The Ohio
TTITLE18=George Jones - I Always Get Lucky With You
TTITLE19=Merle Haggard - Old Man From The Mountain
EXTD=
EXTT0=
EXTT1=
EXTT2=
EXTT3=
EXTT4=
EXTT5=
EXTT6=
EXTT7=
EXTT8=
EXTT9=
EXTT10=
EXTT11=
EXTT12=
EXTT13=
EXTT14=
EXTT15=
EXTT16=
EXTT17=
EXTT18=
EXTT19=
PLAYORDER=
